<svg xmlns="http://www.w3.org/2000/svg" width="370.546" height="89.632" viewBox="0 0 370.546 89.632"><title>medieval-logo</title><g id="Layer_2" data-name="Layer 2"><g id="Layer_2-2" data-name="Layer 2"><path d="M126.952,76.271V52.127l-8.421,24.145H108.393L99.8,53.287V76.271H88.931v-46.1h12.588l12.072,33.94,11.557-33.94h12.33v46.1Z" style="fill:#7e4ea0"/><path d="M154.62,77.045c-1.461,0-11.3-.773-11.3-13.7V51.353c0-6.788,3.824-12.846,12.846-12.846h7.561c9.194,0,12.072,5.456,12.072,10.569v8.249c0,2.449-1.2,3.738-3.394,3.738H154.534v1.976c0,1.547.687,4.081,3.824,4.081,5.972,0,18.13-1.547,18.13-1.547v8.335A74.625,74.625,0,0,1,154.62,77.045ZM166.778,50.58a2.958,2.958,0,0,0-2.964-3.05h-6.058a2.981,2.981,0,0,0-3.05,3.05v3.738h12.072Z" style="fill:#7e4ea0"/><path d="M208.709,76.271l-1.2-2.363c-4.081,1.547-9.366,3.222-14.049,3.222-1.461,0-11.3-.687-11.3-13.619V51.353c0-7.647,4.683-12.846,12.846-12.846h12.158V27.939h11.3V76.271Zm-1.59-28.011h-12.33s-1.547,0-1.547,1.461V62.738a3.691,3.691,0,0,0,3.824,3.738,74.218,74.218,0,0,0,10.053-1.117V48.26Z" style="fill:#7e4ea0"/><path d="M224.39,33.911V27.037h12.244v6.874Zm.258,42.36V38.422H236.29V76.271Z" style="fill:#7e4ea0"/><path d="M253.561,77.045c-1.461,0-11.3-.773-11.3-13.7V51.353c0-6.788,3.824-12.846,12.846-12.846h7.561c9.194,0,12.072,5.456,12.072,10.569v8.249c0,2.449-1.2,3.738-3.394,3.738H253.475v1.976c0,1.547.687,4.081,3.824,4.081,5.972,0,18.13-1.547,18.13-1.547v8.335A76.046,76.046,0,0,1,253.561,77.045ZM265.633,50.58a2.958,2.958,0,0,0-2.964-3.05h-6.058a2.981,2.981,0,0,0-3.05,3.05v3.738h12.072Z" style="fill:#7e4ea0"/><path d="M304.686,76.271H291.067l-13.7-37.849h12.846l7.561,27.152,7.475-27.152h13.1Z" style="fill:#7e4ea0"/><path d="M344.082,76.271l-1.289-2.878c-3.48,1.89-7.647,3.652-10.74,3.652h-2.277c-2.449,0-9.8-1.718-9.8-11.385V62.7c0-4.253,1.976-10.569,12.072-10.569H341.5v-3.05a1.421,1.421,0,0,0-1.461-1.547H325.222V38.422H344.3c5.972,0,8.335,3.824,8.335,8.249V76.185h-8.592l.043.086Zm-2.707-16.755h-9.709a1.45,1.45,0,0,0-1.547,1.461v3.91a2.978,2.978,0,0,0,3.05,3.05,33.226,33.226,0,0,0,8.249-1.461v-6.96Z" style="fill:#7e4ea0"/><path d="M358.9,76.271V27.939h11.643V76.271Z" style="fill:#7e4ea0"/><path id="Flag" d="M34.713,3.279h0V17.07h1.718v-4.6C46.828-.888,57.784,24.8,68.524,8.563,57.44,21.839,46.012-9.91,34.713,3.279Z" style="fill:#7e4ea0"/><path id="Right" d="M34.713,89.632V19.347l-5.456,1.718-.086,5.37-5.284,1.547.086-5.2-4.984,1.676L18.9,29.572l-4.769,1.461.258-5.027-4.511,1.5L9.538,32.45,5.112,33.825l.43-4.855L1.375,30.345.945,35.2.516,40.14h0v.086c.344.086.516.086.859.172l26.894-6.315L4.425,41.3a10.123,10.123,0,0,1,1.633.945l19.075-4.511L7.3,43.277a7.075,7.075,0,0,1,1.375,1.89l14.134-3.394-13.7,4.253C13.533,56.552,0,76.787,0,76.787Z" style="fill:#7e4ea0"/><path id="Left" d="M35.572,89.632V19.347l5.456,1.718.086,5.37L46.4,27.982l-.086-5.2,4.941,1.633.172,5.112,4.769,1.461-.258-5.027,4.511,1.461.344,4.941,4.425,1.375L64.872,28.8l4.167,1.375.43,4.855.43,4.941h0v.086c-.344.086-.516.086-.859.172L42.146,33.911l23.758,7.3a10.123,10.123,0,0,0-1.633.945L45.2,37.649l17.872,5.542a7.075,7.075,0,0,0-1.375,1.89L47.559,41.687l13.7,4.253c-4.425,10.483,9.108,30.718,9.108,30.718Z" style="fill:#7e4ea0"/></g></g></svg>